<mxfile host="drawio-plugin" modified="2023-06-22T18:49:21.934Z" agent="5.0 (Windows NT 6.2; Win64; x64) AppleWebKit/537.36 (KHTML, like Gecko) Chrome/98.0.4758.102 Safari/537.36" etag="3LsX5fpStHqkc-JRniQa" version="20.5.3" type="embed"><diagram id="pje1GRmRfT0mHJVbkVZE" name="Page-1"><mxGraphModel dx="1266" dy="563" grid="1" gridSize="10" guides="1" tooltips="1" connect="1" arrows="1" fold="1" page="1" pageScale="1" pageWidth="1100" pageHeight="850" math="0" shadow="0"><root><mxCell id="0"/><mxCell id="1" parent="0"/><mxCell id="5_YgtmY0Rdwz8p-4PcOd-1" value="User" style="swimlane;fontStyle=0;childLayout=stackLayout;horizontal=1;startSize=26;fillColor=none;horizontalStack=0;resizeParent=1;resizeParentMax=0;resizeLast=0;collapsible=1;marginBottom=0;" parent="1" vertex="1"><mxGeometry x="270" y="240" width="140" height="180" as="geometry"/></mxCell><mxCell id="5_YgtmY0Rdwz8p-4PcOd-2" value="+ email, string&#10;+ password, string&#10;+ pseudo, string" style="text;strokeColor=none;fillColor=none;align=left;verticalAlign=top;spacingLeft=4;spacingRight=4;overflow=hidden;rotatable=0;points=[[0,0.5],[1,0.5]];portConstraint=eastwest;" parent="5_YgtmY0Rdwz8p-4PcOd-1" vertex="1"><mxGeometry y="26" width="140" height="154" as="geometry"/></mxCell><mxCell id="5_YgtmY0Rdwz8p-4PcOd-5" value="Review" style="swimlane;fontStyle=0;childLayout=stackLayout;horizontal=1;startSize=26;fillColor=none;horizontalStack=0;resizeParent=1;resizeParentMax=0;resizeLast=0;collapsible=1;marginBottom=0;" parent="1" vertex="1"><mxGeometry x="410" width="140" height="180" as="geometry"/></mxCell><mxCell id="5_YgtmY0Rdwz8p-4PcOd-6" value="+ createdAt, datetime&#10;+ updatedAt, datetime&#10;+ comment, text&#10;+ rating, interger" style="text;strokeColor=none;fillColor=none;align=left;verticalAlign=top;spacingLeft=4;spacingRight=4;overflow=hidden;rotatable=0;points=[[0,0.5],[1,0.5]];portConstraint=eastwest;" parent="5_YgtmY0Rdwz8p-4PcOd-5" vertex="1"><mxGeometry y="26" width="140" height="154" as="geometry"/></mxCell><mxCell id="5_YgtmY0Rdwz8p-4PcOd-7" value="Step" style="swimlane;fontStyle=0;childLayout=stackLayout;horizontal=1;startSize=26;fillColor=none;horizontalStack=0;resizeParent=1;resizeParentMax=0;resizeLast=0;collapsible=1;marginBottom=0;" parent="1" vertex="1"><mxGeometry x="720" y="30" width="140" height="180" as="geometry"/></mxCell><mxCell id="5_YgtmY0Rdwz8p-4PcOd-8" value="+ number, integer&#10;+ content, string" style="text;strokeColor=none;fillColor=none;align=left;verticalAlign=top;spacingLeft=4;spacingRight=4;overflow=hidden;rotatable=0;points=[[0,0.5],[1,0.5]];portConstraint=eastwest;" parent="5_YgtmY0Rdwz8p-4PcOd-7" vertex="1"><mxGeometry y="26" width="140" height="154" as="geometry"/></mxCell><mxCell id="5_YgtmY0Rdwz8p-4PcOd-9" value="Recipe" style="swimlane;fontStyle=0;childLayout=stackLayout;horizontal=1;startSize=26;fillColor=none;horizontalStack=0;resizeParent=1;resizeParentMax=0;resizeLast=0;collapsible=1;marginBottom=0;" parent="1" vertex="1"><mxGeometry x="550" y="240" width="140" height="200" as="geometry"/></mxCell><mxCell id="5_YgtmY0Rdwz8p-4PcOd-10" value="+ title: text&#10;+ content: text&#10;+ publishDate: date&#10;+ summary: text&#10;+ category: Category&#10;+ Author: User&#10;+ cookingTime: int&#10;+ preparationTime: int&#10;+ thumbnail: string&#10;+ steps: Step&#10;+tags: Tag&#10;+ingredients: Ingredient" style="text;strokeColor=none;fillColor=none;align=left;verticalAlign=top;spacingLeft=4;spacingRight=4;overflow=hidden;rotatable=0;points=[[0,0.5],[1,0.5]];portConstraint=eastwest;" parent="5_YgtmY0Rdwz8p-4PcOd-9" vertex="1"><mxGeometry y="26" width="140" height="174" as="geometry"/></mxCell><mxCell id="5_YgtmY0Rdwz8p-4PcOd-11" value="Category" style="swimlane;fontStyle=0;childLayout=stackLayout;horizontal=1;startSize=26;fillColor=none;horizontalStack=0;resizeParent=1;resizeParentMax=0;resizeLast=0;collapsible=1;marginBottom=0;" parent="1" vertex="1"><mxGeometry x="720" y="350" width="140" height="180" as="geometry"/></mxCell><mxCell id="5_YgtmY0Rdwz8p-4PcOd-12" value="+ name, string" style="text;strokeColor=none;fillColor=none;align=left;verticalAlign=top;spacingLeft=4;spacingRight=4;overflow=hidden;rotatable=0;points=[[0,0.5],[1,0.5]];portConstraint=eastwest;" parent="5_YgtmY0Rdwz8p-4PcOd-11" vertex="1"><mxGeometry y="26" width="140" height="154" as="geometry"/></mxCell><mxCell id="5_YgtmY0Rdwz8p-4PcOd-13" value="Ingredient" style="swimlane;fontStyle=0;childLayout=stackLayout;horizontal=1;startSize=26;fillColor=none;horizontalStack=0;resizeParent=1;resizeParentMax=0;resizeLast=0;collapsible=1;marginBottom=0;" parent="1" vertex="1"><mxGeometry x="900" y="190" width="140" height="180" as="geometry"/></mxCell><mxCell id="5_YgtmY0Rdwz8p-4PcOd-14" value="+ name, string&#10;+ quantity, integer&#10;+ measureUnit, string" style="text;strokeColor=none;fillColor=none;align=left;verticalAlign=top;spacingLeft=4;spacingRight=4;overflow=hidden;rotatable=0;points=[[0,0.5],[1,0.5]];portConstraint=eastwest;" parent="5_YgtmY0Rdwz8p-4PcOd-13" vertex="1"><mxGeometry y="26" width="140" height="154" as="geometry"/></mxCell><mxCell id="3" value="" style="endArrow=none;html=1;rounded=0;exitX=0.5;exitY=0;exitDx=0;exitDy=0;entryX=0;entryY=0.5;entryDx=0;entryDy=0;" edge="1" parent="1" source="5_YgtmY0Rdwz8p-4PcOd-1" target="5_YgtmY0Rdwz8p-4PcOd-6"><mxGeometry width="50" height="50" relative="1" as="geometry"><mxPoint x="315" y="190" as="sourcePoint"/><mxPoint x="365" y="140" as="targetPoint"/></mxGeometry></mxCell><mxCell id="4" value="" style="endArrow=none;html=1;rounded=0;exitX=1;exitY=0.5;exitDx=0;exitDy=0;entryX=0.008;entryY=0.444;entryDx=0;entryDy=0;entryPerimeter=0;" edge="1" parent="1" source="5_YgtmY0Rdwz8p-4PcOd-2" target="5_YgtmY0Rdwz8p-4PcOd-10"><mxGeometry width="50" height="50" relative="1" as="geometry"><mxPoint x="470" y="340" as="sourcePoint"/><mxPoint x="520" y="290" as="targetPoint"/></mxGeometry></mxCell><mxCell id="5" value="" style="endArrow=none;html=1;rounded=0;entryX=0.5;entryY=0;entryDx=0;entryDy=0;exitX=1;exitY=0.5;exitDx=0;exitDy=0;" edge="1" parent="1" source="5_YgtmY0Rdwz8p-4PcOd-6" target="5_YgtmY0Rdwz8p-4PcOd-9"><mxGeometry width="50" height="50" relative="1" as="geometry"><mxPoint x="510" y="270" as="sourcePoint"/><mxPoint x="560" y="220" as="targetPoint"/></mxGeometry></mxCell><mxCell id="6" value="" style="endArrow=none;html=1;rounded=0;exitX=0.75;exitY=0;exitDx=0;exitDy=0;entryX=0;entryY=0.5;entryDx=0;entryDy=0;" edge="1" parent="1" source="5_YgtmY0Rdwz8p-4PcOd-9" target="5_YgtmY0Rdwz8p-4PcOd-8"><mxGeometry width="50" height="50" relative="1" as="geometry"><mxPoint x="730" y="300" as="sourcePoint"/><mxPoint x="780" y="250" as="targetPoint"/></mxGeometry></mxCell><mxCell id="7" value="" style="endArrow=none;html=1;rounded=0;exitX=0.996;exitY=1.012;exitDx=0;exitDy=0;exitPerimeter=0;entryX=0;entryY=0.5;entryDx=0;entryDy=0;" edge="1" parent="1" source="5_YgtmY0Rdwz8p-4PcOd-10" target="5_YgtmY0Rdwz8p-4PcOd-12"><mxGeometry width="50" height="50" relative="1" as="geometry"><mxPoint x="650" y="500" as="sourcePoint"/><mxPoint x="700" y="450" as="targetPoint"/></mxGeometry></mxCell><mxCell id="8" value="" style="endArrow=none;html=1;rounded=0;exitX=1.008;exitY=0.382;exitDx=0;exitDy=0;exitPerimeter=0;entryX=-0.018;entryY=0.407;entryDx=0;entryDy=0;entryPerimeter=0;" edge="1" parent="1" source="5_YgtmY0Rdwz8p-4PcOd-10" target="5_YgtmY0Rdwz8p-4PcOd-14"><mxGeometry width="50" height="50" relative="1" as="geometry"><mxPoint x="780" y="310" as="sourcePoint"/><mxPoint x="830" y="260" as="targetPoint"/></mxGeometry></mxCell></root></mxGraphModel></diagram></mxfile>